<svg width="122" height="37" viewBox="0 0 122 37" fill="none" xmlns="http://www.w3.org/2000/svg">
<rect width="122" height="37" rx="5" fill="#6B46C1"/>
<path d="M18.3239 15.7102H20.6818C20.6477 13.6364 18.9432 12.2045 16.3523 12.2045C13.8011 12.2045 11.9318 13.6136 11.9432 15.7273C11.9375 17.4432 13.1477 18.4261 15.1136 18.8977L16.3807 19.2159C17.6477 19.5227 18.3523 19.8864 18.358 20.6705C18.3523 21.5227 17.5455 22.1023 16.2955 22.1023C15.017 22.1023 14.0966 21.5114 14.017 20.3466H11.6364C11.6989 22.8636 13.5 24.1648 16.3239 24.1648C19.1648 24.1648 20.8352 22.8068 20.8409 20.6761C20.8352 18.7386 19.375 17.7102 17.3523 17.2557L16.3068 17.0057C15.2955 16.7727 14.4489 16.3977 14.4659 15.5625C14.4659 14.8125 15.1307 14.2614 16.3352 14.2614C17.5114 14.2614 18.233 14.7955 18.3239 15.7102ZM26.4276 24.1705C28.5866 24.1705 30.0412 23.1193 30.3821 21.5L28.1435 21.3523C27.8991 22.017 27.2741 22.3636 26.4673 22.3636C25.2571 22.3636 24.4901 21.5625 24.4901 20.2614V20.2557H30.4332V19.5909C30.4332 16.625 28.6378 15.1591 26.331 15.1591C23.7628 15.1591 22.098 16.983 22.098 19.6761C22.098 22.4432 23.7401 24.1705 26.4276 24.1705ZM24.4901 18.7557C24.5412 17.7614 25.2969 16.9659 26.3707 16.9659C27.4219 16.9659 28.1491 17.7159 28.1548 18.7557H24.4901ZM35.9901 24.1705C38.1491 24.1705 39.6037 23.1193 39.9446 21.5L37.706 21.3523C37.4616 22.017 36.8366 22.3636 36.0298 22.3636C34.8196 22.3636 34.0526 21.5625 34.0526 20.2614V20.2557H39.9957V19.5909C39.9957 16.625 38.2003 15.1591 35.8935 15.1591C33.3253 15.1591 31.6605 16.983 31.6605 19.6761C31.6605 22.4432 33.3026 24.1705 35.9901 24.1705ZM34.0526 18.7557C34.1037 17.7614 34.8594 16.9659 35.9332 16.9659C36.9844 16.9659 37.7116 17.7159 37.7173 18.7557H34.0526ZM45.2784 24H47.6989V18.7614C47.6989 17.7955 48.3125 17.1534 49.1193 17.1534C49.9148 17.1534 50.4489 17.6989 50.4489 18.5568V24H52.7955V18.6705C52.7955 17.767 53.3125 17.1534 54.1932 17.1534C54.9659 17.1534 55.5455 17.6364 55.5455 18.608V24H57.9602V18.1307C57.9602 16.2386 56.8352 15.1591 55.2102 15.1591C53.9318 15.1591 52.9375 15.8125 52.5795 16.8125H52.4886C52.2102 15.8011 51.3182 15.1591 50.1193 15.1591C48.9432 15.1591 48.0511 15.7841 47.6875 16.8125H47.5852V15.2727H45.2784V24ZM63.8153 24.1705C66.4631 24.1705 68.1108 22.358 68.1108 19.6705C68.1108 16.9659 66.4631 15.1591 63.8153 15.1591C61.1676 15.1591 59.5199 16.9659 59.5199 19.6705C59.5199 22.358 61.1676 24.1705 63.8153 24.1705ZM63.8267 22.2955C62.6051 22.2955 61.9801 21.1761 61.9801 19.6534C61.9801 18.1307 62.6051 17.0057 63.8267 17.0057C65.0256 17.0057 65.6506 18.1307 65.6506 19.6534C65.6506 21.1761 65.0256 22.2955 63.8267 22.2955ZM69.6847 24H72.1051V19.0625C72.1051 17.9886 72.8892 17.25 73.9574 17.25C74.2926 17.25 74.7528 17.3068 74.9801 17.3807V15.233C74.7642 15.1818 74.4631 15.1477 74.2188 15.1477C73.2415 15.1477 72.4403 15.7159 72.1222 16.7955H72.0312V15.2727H69.6847V24ZM79.8026 24.1705C81.9616 24.1705 83.4162 23.1193 83.7571 21.5L81.5185 21.3523C81.2741 22.017 80.6491 22.3636 79.8423 22.3636C78.6321 22.3636 77.8651 21.5625 77.8651 20.2614V20.2557H83.8082V19.5909C83.8082 16.625 82.0128 15.1591 79.706 15.1591C77.1378 15.1591 75.473 16.983 75.473 19.6761C75.473 22.4432 77.1151 24.1705 79.8026 24.1705ZM77.8651 18.7557C77.9162 17.7614 78.6719 16.9659 79.7457 16.9659C80.7969 16.9659 81.5241 17.7159 81.5298 18.7557H77.8651Z" fill="white"/>
<g clip-path="url(#clip0_6_148)">
<path d="M102 10.6666C106.6 10.6666 110.333 14.4 110.333 19C110.333 23.6 106.6 27.3333 102 27.3333C97.4 27.3333 93.6667 23.6 93.6667 19C93.6667 14.4 97.4 10.6666 102 10.6666ZM102.833 19V15.6666H101.167V19H98.6667L102 22.3333L105.333 19H102.833Z" fill="white"/>
</g>
<defs>
<clipPath id="clip0_6_148">
<rect width="20" height="20" fill="white" transform="translate(92 9)"/>
</clipPath>
</defs>
</svg>
